<svg id="Layer_1" viewBox="0 0 24 24" xmlns="http://www.w3.org/2000/svg" data-name="Layer 1"><path d="m23.72 21.5c-.536 1.252-2.423 1.735-3.985 1.518l-3.877-4.518h-2.057l-2.339 2.924-1.04 1.634h-.549c-.574.018-.872.335-.872.942h-2c0-1.81 1.207-2.653 2.279-2.879l.897-2.829c-2.576-.74-5.192-3.313-6.115-4.292h-4.062v-.5c0-2.568 2.093-3.5 3.5-3.5h4.528c.528-.435 1.71-3.597 1.472-6.276l14.5-3.715c.004.953.011 2.192-.092 3.1l-10.408 2.891h9.875c-.332 1.132-.787 2.12-1.327 3h-9.017l7.201 2.298c-1.045 1.044-2.22 1.883-3.417 2.599l.943 1.887 4.979 1.723c.635.77 1.798 2.223.982 3.994z"/></svg>