<svg id="Layer_1" viewBox="0 0 24 24" xmlns="http://www.w3.org/2000/svg" data-name="Layer 1"><path d="m22.386 7.94c-.216-.643-.386-1.15-.386-1.44 0-.823.203-1.427.438-2.126.464-1.016.644-2.979.562-4.352-1.027.384-2.405.974-3.5.978-2.195-.067-4.61-1.033-7-1-3.758 0-7.219 2.893-8.206 6.473l4.706 4.706-3.074 4.469c.291 4.442-1.71 6.557-2.787 8.352h1.86c4.006 0 6.802-2.788 8.079-4.392l3.649 4.171c.939-2.003 1.72-2.902 2.184-6.205l5.088 2.544c.266-4.933-.932-10.762-1.614-12.178zm-11.386.06h-2s0-3 3-3h2s0 3-3 3zm-6.5 6c-1.736 0-2.241.402-2.378.576l-.921 1.169-.734-1.295c-.492-.868-.601-1.857-.312-2.861.365-1.273 1.485-2.598 3.212-3.216l3.043 3.043-1.777 2.583h-.132z"/></svg>